<?xml version="1.0" standalone="no"?><!DOCTYPE svg PUBLIC "-//W3C//DTD SVG 1.1//EN" "http://www.w3.org/Graphics/SVG/1.1/DTD/svg11.dtd"><svg t="1690793760531" class="icon" viewBox="0 0 1024 1024" version="1.1" xmlns="http://www.w3.org/2000/svg" p-id="846" xmlns:xlink="http://www.w3.org/1999/xlink" width="200" height="200"><path d="M671.81246411 302.30865914c18.48675889 55.50653142 43.13320009 98.67827805 86.26640114 141.85002469 36.96580771-37.00435426 61.61224988-86.3434933 80.0990078-141.85002469h-166.36540894z m-406.647017 308.36961891h160.19801753l-80.09900876-215.85873325-80.09900877 215.85873325z" p-id="847"></path><path d="M881.30336402 18.60860969H141.93323828C74.16130516 18.60860969 18.70873854 74.1151411 18.70873854 141.95645728v740.08708544c0 67.84131617 55.4525666 123.34784756 123.22449974 123.34784759h739.37012668c67.77193314 0 123.22449974-55.50653142 123.22449973-123.34784759V141.95645728c0-67.84131617-49.29288334-123.34784756-123.22449973-123.34784759zM579.39408883 814.20222656c-12.31936651 12.33478476-24.64644215 12.33478476-36.96580771 12.33478477-6.16739238 0-18.48675889 0-24.64644215-6.16739239-6.16739238-6.16739238-12.32707564 0-12.32707564-6.16739238s-6.15968325-12.33478476-12.31936556-24.66956951c-6.16739238-12.33478476-6.16739238-18.50217714-12.32707565-30.83696189l-24.63873302-67.84131617H240.51900594L215.87256377 758.69569516c-12.31936651 24.66956951-18.48675889 43.17174665-24.64644216 55.5065314-6.16739238 12.33478476-18.48675889 12.33478476-36.9658077 12.33478477-12.32707564 0-24.64644215-6.16739238-36.97351681-12.33478477-12.31936651-12.33478476-18.47904977-18.50217714-18.47904979-30.83696189 0-6.16739238 0-12.33478476 6.15968325-24.66956951 6.16739238-12.33478476 6.16739238-18.50217714 12.31936654-30.83696191l135.55157438-345.37397321c6.16739238-12.33478476 6.16739238-24.66956951 12.32707563-37.00435427 6.15968325-12.33478476 12.31936651-24.66956951 18.47904979-30.8369619 6.16739238-6.16739238 12.32707564-18.50217714 24.64644119-24.6695695 12.32707564-6.16739238 24.64644215-6.16739238 36.97351779-6.16739239 12.31936651 0 24.63873303 0 36.96580771 6.16739239 12.31936651 6.16739238 18.48675889 12.33478476 24.64644216 24.6695695 6.15968325 6.16739238 12.31936651 18.50217714 18.47904977 30.8369619 6.16739238 12.33478476 12.32707564 24.66956951 18.48675793 43.17174665l135.55157538 339.20658083c12.31936651 24.66956951 18.48675889 43.17174665 18.48675888 55.50653142-6.16739238 6.16739238-12.32707564 18.50217714-18.48675889 30.83696189zM918.26917268 573.67392379c-67.77193314-24.66956951-117.06481647-55.50653142-160.19801752-92.51088568-43.12549097 43.17174665-98.57805757 74.00870855-166.35769981 92.51088568l-18.47904978-30.8369619c67.77193314-18.50217714 123.22449974-43.17174665 166.35770077-86.34349331C696.45890527 413.32172195 659.49309759 357.81519053 647.16602195 296.14126675h-61.61224988v-24.66956952h166.36540991c-12.33478476-18.50217714-24.65415129-43.17174665-36.9735178-61.67392379l18.47904978-6.16739238c12.32707564 18.50217714 30.81383455 43.17174665 43.13320009 67.84131617h154.03062514v30.83696191h-61.61224986c-18.47904977 61.67392379-49.28517423 117.1804552-86.25869202 154.18480944 43.13320009 37.00435426 92.41837433 67.84131617 160.19801753 86.34349331l-24.64644216 30.8369619z" p-id="848"></path></svg>