<?xml version="1.0" standalone="no"?><!DOCTYPE svg PUBLIC "-//W3C//DTD SVG 1.1//EN" "http://www.w3.org/Graphics/SVG/1.1/DTD/svg11.dtd"><svg t="1690794404178" class="icon" viewBox="0 0 1024 1024" version="1.1" xmlns="http://www.w3.org/2000/svg" p-id="907" xmlns:xlink="http://www.w3.org/1999/xlink" width="260" height="260"><path d="M981.16833028 801.97657283a41.42522469 41.42522469 0 0 1-41.42522469-41.42522468V164.02811259a60.06657581 60.06657581 0 0 0-60.06657581-59.65232356H283.56754647a41.42522469 41.42522469 0 0 1 0-82.85044938h596.10898331a142.91702518 142.91702518 0 0 1 142.91702518 142.50277294V760.55134815a41.42522469 41.42522469 0 0 1-41.42522468 41.42522468z" p-id="908"></path><path d="M765.75716187 1015.73073225H170.8909353a142.50277294 142.50277294 0 0 1-142.50277294-142.50277294V277.9474805A142.91702518 142.91702518 0 0 1 170.8909353 135.44470755h594.86622657a142.91702518 142.91702518 0 0 1 142.91702519 142.50277295v595.28047881a142.91702518 142.91702518 0 0 1-142.91702519 142.50277294zM170.8909353 218.29515694a60.06657581 60.06657581 0 0 0-59.65232355 59.65232356v595.28047881a60.06657581 60.06657581 0 0 0 59.65232355 59.65232355h594.86622657a60.06657581 60.06657581 0 0 0 60.06657581-59.65232355V277.9474805a60.06657581 60.06657581 0 0 0-60.06657581-59.65232356z" p-id="909"></path><path d="M534.19015586 594.85044939h-133.38922351l-35.21144099 111.43385442h-46.39625166l124.27567408-364.12772505h50.53877413l124.27567406 364.12772505h-49.29601738z m-11.59906291-36.45419774l-17.39859437-55.92405334c-13.2560719-41.42522469-24.85513482-82.85044939-36.45419774-124.27567406h-2.07126123c-11.59906291 41.42522469-23.61237808 82.85044939-36.45419774 124.27567406l-17.81284661 55.92405334zM658.46582993 843.40179753H278.59651951a41.42522469 41.42522469 0 0 1 0-82.85044938h379.86931042a41.42522469 41.42522469 0 0 1 0 82.85044938z" p-id="910"></path></svg>